<?xml version="1.0" encoding="UTF-8" standalone="no"?>
<!-- Generator: Adobe Illustrator 16.0.0, SVG Export Plug-In . SVG Version: 6.00 Build 0)  -->

<svg
   xmlns:dc="http://purl.org/dc/elements/1.1/"
   xmlns:cc="http://creativecommons.org/ns#"
   xmlns:rdf="http://www.w3.org/1999/02/22-rdf-syntax-ns#"
   xmlns:svg="http://www.w3.org/2000/svg"
   xmlns="http://www.w3.org/2000/svg"
   xmlns:xlink="http://www.w3.org/1999/xlink"
   xmlns:sodipodi="http://sodipodi.sourceforge.net/DTD/sodipodi-0.dtd"
   xmlns:inkscape="http://www.inkscape.org/namespaces/inkscape"
   version="1.1"
   id="Capa_1"
   x="0px"
   y="0px"
   width="20px"
   height="20px"
   viewBox="0 0 20 20"
   enable-background="new 0 0 20 20"
   xml:space="preserve"
   sodipodi:docname="button_undo.svg"
   inkscape:version="0.92.1 r15371"><metadata
     id="metadata35"><rdf:RDF><cc:Work
         rdf:about=""><dc:format>image/svg+xml</dc:format><dc:type
           rdf:resource="http://purl.org/dc/dcmitype/StillImage" /><dc:title></dc:title></cc:Work></rdf:RDF></metadata><defs
     id="defs33"><linearGradient
       inkscape:collect="always"
       id="linearGradient4538"><stop
         style="stop-color:#ff7908;stop-opacity:1"
         offset="0"
         id="stop4534" /><stop
         style="stop-color:#ff7908;stop-opacity:0.50396824"
         offset="1"
         id="stop4536" /></linearGradient><linearGradient
       gradientTransform="rotate(90,315,112.7705)"
       y2="417.77051"
       x2="222.9575"
       y1="417.77051"
       x1="202.9575"
       gradientUnits="userSpaceOnUse"
       id="SVGID_1_"
       xlink:href="#SVGID_2_"><stop
         id="stop2"
         style="stop-color:#5B5B5F"
         offset="0" /><stop
         id="stop4"
         style="stop-color:#141414"
         offset="1" /></linearGradient><linearGradient
       y2="20"
       x2="10"
       y1="0"
       x1="10"
       gradientUnits="userSpaceOnUse"
       id="SVGID_2_"><stop
         id="stop9"
         style="stop-color:#5B5B5F"
         offset="0" /><stop
         id="stop11"
         style="stop-color:#464649"
         offset="0.2775" /><stop
         id="stop13"
         style="stop-color:#0F0F10"
         offset="0.8541" /><stop
         id="stop15"
         style="stop-color:#000000"
         offset="1" /></linearGradient><filter
       inkscape:collect="always"
       style="color-interpolation-filters:sRGB"
       id="filter4578"
       x="-0.12"
       width="1.24"
       y="-0.12"
       height="1.24"><feGaussianBlur
         inkscape:collect="always"
         stdDeviation="1"
         id="feGaussianBlur4580" /></filter><linearGradient
       inkscape:collect="always"
       xlink:href="#linearGradient4538"
       id="linearGradient4609"
       gradientUnits="userSpaceOnUse"
       x1="13.983051"
       y1="14.830508"
       x2="5.0847459"
       y2="-7.758706e-07" /></defs><sodipodi:namedview
     pagecolor="#ffffff"
     bordercolor="#666666"
     borderopacity="1"
     objecttolerance="10"
     gridtolerance="10"
     guidetolerance="10"
     inkscape:pageopacity="0"
     inkscape:pageshadow="2"
     inkscape:window-width="1132"
     inkscape:window-height="853"
     id="namedview31"
     showgrid="false"
     inkscape:zoom="15.540715"
     inkscape:cx="10.905982"
     inkscape:cy="13.433749"
     inkscape:window-x="140"
     inkscape:window-y="24"
     inkscape:window-maximized="0"
     inkscape:current-layer="Capa_1" /><circle
     style="fill:url(#linearGradient4609);fill-opacity:1;filter:url(#filter4578);fill-rule:evenodd"
     id="circle7"
     r="10"
     cy="10"
     cx="10" /><path
     inkscape:connector-curvature="0"
     style="fill:url(#SVGID_2_)"
     id="path18"
     d="m 10,1.666 c 4.596,0 8.335,3.739 8.335,8.334 0,4.595 -3.739,8.334 -8.335,8.334 C 5.404,18.334 1.665,14.595 1.665,10 1.665,5.405 5.404,1.666 10,1.666 M 10,0 C 4.477,0 0,4.477 0,10 0,15.522 4.477,20 10,20 15.523,20 20,15.522 20,10 20,4.478 15.523,0 10,0 Z" /><g
     id="g28"><g
       id="g26" /></g><g
     transform="matrix(0.03006584,0,0,0.03006584,2.0297995,1.7417957)"
     id="g4"
     style="fill:#ffffff;fill-opacity:1"><path
       inkscape:connector-curvature="0"
       d="m 447.9,368.2 c 0,-16.8 3.6,-83.1 -48.7,-135.7 C 364,197.1 318.9,179.1 255.9,176.3 V 96 L 64,224 256,352 v -79.8 c 40,1.1 62.4,9.1 86.7,20 30.9,13.8 55.3,44 75.8,76.6 L 437.7,400 H 448 c 0,-10.1 -0.1,-22.9 -0.1,-31.8 z"
       id="path2"
       style="fill:#ffffff;fill-opacity:1" /></g></svg>