<?xml version="1.0" encoding="UTF-8" standalone="no"?>
<!-- Generator: Adobe Illustrator 16.0.0, SVG Export Plug-In . SVG Version: 6.00 Build 0)  -->

<svg
   xmlns:dc="http://purl.org/dc/elements/1.1/"
   xmlns:cc="http://creativecommons.org/ns#"
   xmlns:rdf="http://www.w3.org/1999/02/22-rdf-syntax-ns#"
   xmlns:svg="http://www.w3.org/2000/svg"
   xmlns="http://www.w3.org/2000/svg"
   xmlns:xlink="http://www.w3.org/1999/xlink"
   xmlns:sodipodi="http://sodipodi.sourceforge.net/DTD/sodipodi-0.dtd"
   xmlns:inkscape="http://www.inkscape.org/namespaces/inkscape"
   version="1.1"
   id="Capa_1"
   x="0px"
   y="0px"
   width="20px"
   height="20px"
   viewBox="0 0 20 20"
   enable-background="new 0 0 20 20"
   xml:space="preserve"
   sodipodi:docname="button_start.svg"
   inkscape:version="0.92.3 (2405546, 2018-03-11)"><metadata
     id="metadata35"><rdf:RDF><cc:Work
         rdf:about=""><dc:format>image/svg+xml</dc:format><dc:type
           rdf:resource="http://purl.org/dc/dcmitype/StillImage" /><dc:title></dc:title></cc:Work></rdf:RDF></metadata><defs
     id="defs33"><linearGradient
       inkscape:collect="always"
       id="linearGradient4538"><stop
         style="stop-color:#616161;stop-opacity:1"
         offset="0"
         id="stop4534" /><stop
         style="stop-color:#959595;stop-opacity:0.50588238"
         offset="1"
         id="stop4536" /></linearGradient><linearGradient
       gradientTransform="rotate(90,315,112.7705)"
       y2="417.77051"
       x2="222.9575"
       y1="417.77051"
       x1="202.9575"
       gradientUnits="userSpaceOnUse"
       id="SVGID_1_"
       xlink:href="#SVGID_2_"><stop
         id="stop2"
         style="stop-color:#5B5B5F"
         offset="0" /><stop
         id="stop4"
         style="stop-color:#141414"
         offset="1" /></linearGradient><linearGradient
       y2="20"
       x2="10"
       y1="0"
       x1="10"
       gradientUnits="userSpaceOnUse"
       id="SVGID_2_"><stop
         id="stop9"
         style="stop-color:#5B5B5F"
         offset="0" /><stop
         id="stop11"
         style="stop-color:#464649"
         offset="0.2775" /><stop
         id="stop13"
         style="stop-color:#0F0F10"
         offset="0.8541" /><stop
         id="stop15"
         style="stop-color:#000000"
         offset="1" /></linearGradient><filter
       inkscape:collect="always"
       style="color-interpolation-filters:sRGB"
       id="filter4578"
       x="-0.12"
       width="1.24"
       y="-0.12"
       height="1.24"><feGaussianBlur
         inkscape:collect="always"
         stdDeviation="1"
         id="feGaussianBlur4580" /></filter><linearGradient
       inkscape:collect="always"
       xlink:href="#linearGradient4538"
       id="linearGradient4609"
       gradientUnits="userSpaceOnUse"
       x1="13.983051"
       y1="14.830508"
       x2="5.0847459"
       y2="-7.758706e-07" /></defs><sodipodi:namedview
     pagecolor="#ffffff"
     bordercolor="#666666"
     borderopacity="1"
     objecttolerance="10"
     gridtolerance="10"
     guidetolerance="10"
     inkscape:pageopacity="0"
     inkscape:pageshadow="2"
     inkscape:window-width="1293"
     inkscape:window-height="916"
     id="namedview31"
     showgrid="false"
     inkscape:zoom="40.15"
     inkscape:cx="12.478954"
     inkscape:cy="10.958371"
     inkscape:window-x="274"
     inkscape:window-y="45"
     inkscape:window-maximized="0"
     inkscape:current-layer="Capa_1" /><circle
     style="fill:url(#linearGradient4609);fill-opacity:1;filter:url(#filter4578);fill-rule:evenodd"
     id="circle7"
     r="10"
     cy="10"
     cx="10" /><path
     inkscape:connector-curvature="0"
     style="fill:url(#SVGID_2_)"
     id="path18"
     d="m 10,1.666 c 4.596,0 8.335,3.739 8.335,8.334 0,4.595 -3.739,8.334 -8.335,8.334 C 5.404,18.334 1.665,14.595 1.665,10 1.665,5.405 5.404,1.666 10,1.666 M 10,0 C 4.477,0 0,4.477 0,10 0,15.522 4.477,20 10,20 15.523,20 20,15.522 20,10 20,4.478 15.523,0 10,0 Z" /><g
     id="g28"><g
       id="g26" /></g><g
     id="g4569"
     transform="matrix(-1,0,0,1,19.715629,0)"><path
       style="fill:#ffffff;fill-opacity:1;stroke-width:0.03161133"
       sodipodi:nodetypes="ccsscssscsssccc"
       d="M 14.106831,9.3006788 9.8919332,5.0858453 c -0.411484,-0.4115164 -1.0786103,-0.4115164 -1.4901263,0 -0.411516,0.4115164 -0.411516,1.0786729 0,1.4901901 L 10.81783,8.992057 H 4.9320199 c -0.581933,0 -1.053701,0.4717684 -1.053701,1.053701 0,0.581933 0.471768,1.053701 1.053701,1.053701 H 10.81783 l -2.4160561,2.416055 c -0.411516,0.411516 -0.411516,1.078673 0,1.490189 0.205759,0.205759 0.475467,0.308622 0.7451123,0.308622 0.269644,0 0.539352,-0.102863 0.745047,-0.308622 L 14.106831,10.79087 c 0.411452,-0.411517 0.411452,-1.0787056 0,-1.4901912 z"
       id="path2"
       inkscape:connector-curvature="0" /><path
       style="fill:#ffffff;fill-opacity:1;stroke-width:0.03199784"
       sodipodi:nodetypes="ccssccc"
       d="m 14.785918,15.246425 c 0.499656,-0.0063 1.022703,-0.427142 1.051392,-1.084973 V 5.9536619 c 0,-0.5962504 -0.471769,-1.0796254 -1.053701,-1.0796254 -0.581933,0 -1.053701,0.483375 -1.053701,1.0796254 -0.02666,5.7234431 -0.05258,4.8872251 -0.0817,8.3341711 0.02123,0.554872 0.552761,0.935846 1.137707,0.958592 z"
       id="path2-3"
       inkscape:connector-curvature="0" /></g></svg>