<?xml version="1.0" encoding="UTF-8" standalone="no"?>
<!-- Created with Inkscape (http://www.inkscape.org/) -->

<svg
   xmlns:dc="http://purl.org/dc/elements/1.1/"
   xmlns:cc="http://creativecommons.org/ns#"
   xmlns:rdf="http://www.w3.org/1999/02/22-rdf-syntax-ns#"
   xmlns:svg="http://www.w3.org/2000/svg"
   xmlns="http://www.w3.org/2000/svg"
   xmlns:sodipodi="http://sodipodi.sourceforge.net/DTD/sodipodi-0.dtd"
   xmlns:inkscape="http://www.inkscape.org/namespaces/inkscape"
   width="30mm"
   height="30mm"
   id="svg3129"
   version="1.1"
   inkscape:version="0.92.1 r15371"
   sodipodi:docname="ZUKUNFT_logo.svg"
   viewBox="0 0 30 30">
  <defs
     id="defs3" />
  <sodipodi:namedview
     inkscape:document-units="mm"
     id="base"
     pagecolor="#ffffff"
     bordercolor="#666666"
     borderopacity="1.0"
     inkscape:pageopacity="0.0"
     inkscape:pageshadow="2"
     inkscape:zoom="2.02"
     inkscape:cx="47.580645"
     inkscape:cy="9.643588"
     inkscape:current-layer="layer1"
     showgrid="false"
     inkscape:window-width="1280"
     inkscape:window-height="995"
     inkscape:window-x="1280"
     inkscape:window-y="0"
     inkscape:window-maximized="1"
     inkscape:pagecheckerboard="false" />
  <metadata
     id="metadata4">
    <rdf:RDF>
      <cc:Work
         rdf:about="">
        <dc:format>image/svg+xml</dc:format>
        <dc:type
           rdf:resource="http://purl.org/dc/dcmitype/StillImage" />
        <dc:title></dc:title>
      </cc:Work>
    </rdf:RDF>
  </metadata>
  <g
     inkscape:label="Layer 1"
     inkscape:groupmode="layer"
     id="layer1"
     transform="translate(0,-971.49605)">
    <g
       id="g3050"
       transform="matrix(0.25001878,0,0,0.25001878,-89.137206,912.58852)">
      <g
         id="g3">
        <g
           id="g5">
          <g
             id="g7">
            <path
               id="path9"
               d="m 384,272.3 c 2.9,3.1 5.9,6.2 8.8,9.3 1.3,1.4 3.7,-1.1 3.7,-2.5 0,-4 0,-7.9 0,-11.9 -0.8,0.9 -1.5,1.8 -2.3,2.7 17.8,-5.5 35.5,-11.1 53.3,-16.6 -0.4,-1.1 -0.8,-2.2 -1.2,-3.3 -17,22.8 -33.9,45.6 -50.9,68.5 -0.9,1.2 -1.1,3.9 1.2,3.3 17,-4.9 33.9,-9.8 50.9,-14.7 1.1,-0.3 2.3,-1.5 2.3,-2.7 0,-3.6 0,-7.3 0,-10.9 0,-0.7 -0.2,-1.3 -0.9,-1.6 -3.5,-1.6 -7,-3.2 -10.5,-4.8 -1.5,-0.7 -3.2,1.4 -3.3,2.7 -0.2,3 -0.3,6 -0.5,9 0.8,-0.9 1.5,-1.8 2.3,-2.7 -15.5,4.7 -31.1,9.4 -46.6,14 0.4,1.1 0.8,2.2 1.2,3.3 15.8,-22.3 31.5,-44.7 47.3,-67 0.8,-1.2 1.1,-3.9 -1.2,-3.3 -17.4,5.2 -34.9,10.3 -52.3,15.5 -1.4,0.4 -2.3,1.8 -2.3,3.2 0.1,3.3 0.3,6.5 0.4,9.8 0.1,2.7 4.2,0 4.1,-2.2 -0.1,-3.3 -0.3,-6.5 -0.4,-9.8 -0.8,1.1 -1.5,2.2 -2.3,3.2 17.4,-5.2 34.9,-10.3 52.3,-15.5 -0.4,-1.1 -0.8,-2.2 -1.2,-3.3 -15.8,22.3 -31.5,44.7 -47.3,67 -0.8,1.2 -1.1,4 1.2,3.3 15.5,-4.7 31.1,-9.4 46.6,-14 1.1,-0.3 2.2,-1.5 2.3,-2.7 0.2,-3 0.3,-6 0.5,-9 -1.1,0.9 -2.2,1.8 -3.3,2.7 3.5,1.6 7,3.2 10.5,4.8 -0.3,-0.5 -0.6,-1.1 -0.9,-1.6 0,3.6 0,7.3 0,10.9 0.8,-0.9 1.5,-1.8 2.3,-2.7 -17,4.9 -33.9,9.8 -50.9,14.7 0.4,1.1 0.8,2.2 1.2,3.3 17,-22.8 33.9,-45.6 50.9,-68.5 0.8,-1.1 1.1,-4 -1.2,-3.3 -17.8,5.5 -35.5,11.1 -53.3,16.6 -1.1,0.3 -2.3,1.5 -2.3,2.7 0,4 0,7.9 0,11.9 1.2,-0.8 2.5,-1.6 3.7,-2.5 -2.9,-3.1 -5.9,-6.2 -8.8,-9.3 -1.5,-1.4 -4.8,2.3 -3.1,4 z"
               inkscape:connector-curvature="0"
               style="fill:#d3d3d3" />
          </g>
        </g>
      </g>
      <g
         id="g11">
        <g
           id="g13">
          <path
             id="path15"
             d="m 375,340.2 h -7 c -0.2,0 -0.3,-0.1 -0.3,-0.3 V 338 c 0,-0.2 0.1,-0.5 0.3,-0.8 l 2.9,-4.5 c 0,-0.1 0.1,-0.1 0.1,-0.2 0,-0.1 -0.1,-0.1 -0.2,-0.1 H 368 c -0.2,0 -0.3,-0.1 -0.3,-0.3 v -2.3 c 0,-0.2 0.1,-0.3 0.3,-0.3 h 6.9 c 0.2,0 0.3,0.1 0.3,0.3 v 2 c 0,0.3 -0.2,0.6 -0.3,0.8 l -2.8,4.3 c 0,0.1 -0.1,0.1 -0.1,0.2 0,0.1 0.1,0.1 0.2,0.1 h 2.7 c 0.2,0 0.3,0.1 0.3,0.3 v 2.3 c 0.1,0.3 -0.1,0.4 -0.2,0.4 z"
             inkscape:connector-curvature="0"
             style="fill:#8c8c8c" />
          <path
             id="path17"
             d="m 381.4,340.4 c -2.2,0 -4.5,-0.6 -4.5,-4.2 V 330 c 0,-0.2 0.1,-0.3 0.3,-0.3 h 2.8 c 0.2,0 0.3,0.1 0.3,0.3 v 6.2 c 0,1.1 0.4,1.4 1.1,1.4 0.7,0 1.1,-0.2 1.1,-1.4 V 330 c 0,-0.2 0.1,-0.3 0.3,-0.3 h 2.8 c 0.2,0 0.3,0.1 0.3,0.3 v 6.2 c 0,3.6 -2.3,4.2 -4.5,4.2 z"
             inkscape:connector-curvature="0"
             style="fill:#8c8c8c" />
          <path
             id="path19"
             d="m 396.9,340.2 h -3.4 c -0.3,0 -0.4,-0.1 -0.5,-0.3 l -2.1,-4.4 v 4.4 c 0,0.2 -0.1,0.3 -0.3,0.3 h -2.8 c -0.2,0 -0.3,-0.1 -0.3,-0.3 v -10.1 c 0,-0.2 0.1,-0.3 0.3,-0.3 h 2.8 c 0.2,0 0.3,0.1 0.3,0.3 v 4.5 l 2.4,-4.5 c 0.1,-0.1 0.1,-0.3 0.3,-0.3 h 3.3 c 0.1,0 0.2,0.1 0.2,0.2 0,0 0,0.1 0,0.1 l -2.8,5 2.8,5 c 0,0 0,0.1 0,0.1 0,0.3 -0.1,0.3 -0.2,0.3 z"
             inkscape:connector-curvature="0"
             style="fill:#8c8c8c" />
          <path
             id="path21"
             d="m 402.8,340.4 c -2.2,0 -4.5,-0.6 -4.5,-4.2 V 330 c 0,-0.2 0.1,-0.3 0.3,-0.3 h 2.8 c 0.2,0 0.3,0.1 0.3,0.3 v 6.2 c 0,1.1 0.4,1.4 1.1,1.4 0.7,0 1.1,-0.2 1.1,-1.4 V 330 c 0,-0.2 0.1,-0.3 0.3,-0.3 h 2.8 c 0.2,0 0.3,0.1 0.3,0.3 v 6.2 c 0,3.6 -2.3,4.2 -4.5,4.2 z"
             inkscape:connector-curvature="0"
             style="fill:#8c8c8c" />
          <path
             id="path23"
             d="m 417.7,340.2 h -2.4 c -0.2,0 -0.4,-0.1 -0.5,-0.3 l -2.4,-3.9 c 0,-0.1 -0.1,-0.1 -0.1,-0.1 0,0 -0.1,0 -0.1,0.1 v 3.9 c 0,0.2 -0.1,0.3 -0.3,0.3 h -2.6 c -0.2,0 -0.3,-0.1 -0.3,-0.3 v -9.8 c 0,-0.3 0.2,-0.5 0.5,-0.5 h 2.3 c 0.3,0 0.4,0.2 0.5,0.4 l 2.4,3.9 c 0.1,0.1 0.1,0.1 0.1,0.1 0,0 0.1,0 0.1,-0.1 v -4.1 c 0,-0.2 0.1,-0.3 0.3,-0.3 h 2.6 c 0.2,0 0.3,0.1 0.3,0.3 v 9.8 c 0.1,0.4 -0.1,0.6 -0.4,0.6 z"
             inkscape:connector-curvature="0"
             style="fill:#8c8c8c" />
          <path
             id="path25"
             d="m 426.5,336.2 h -3.3 v 3.8 c 0,0.2 -0.1,0.3 -0.3,0.3 h -2.8 c -0.2,0 -0.3,-0.1 -0.3,-0.3 v -7.1 c 0,-2.9 2,-3.3 3.8,-3.3 1.2,0 2.3,0.1 2.9,0.2 0.2,0 0.3,0.1 0.3,0.3 v 2.2 c 0,0.2 -0.1,0.3 -0.3,0.3 h -2.9 c -0.4,0 -0.5,0.1 -0.5,0.5 v 0.8 h 3.3 c 0.2,0 0.3,0.1 0.3,0.3 v 2 c 0.1,-0.2 -0.1,0 -0.2,0 z"
             inkscape:connector-curvature="0"
             style="fill:#8c8c8c" />
          <path
             id="path27"
             d="m 435.4,332.4 h -1.9 v 7.6 c 0,0.2 -0.1,0.3 -0.3,0.3 h -2.8 c -0.2,0 -0.3,-0.1 -0.3,-0.3 v -7.6 h -2 c -0.2,0 -0.3,-0.1 -0.3,-0.3 v -2.2 c 0,-0.2 0.1,-0.3 0.3,-0.3 h 7.3 c 0.2,0 0.3,0.1 0.3,0.3 v 2.2 c 0,0.1 -0.1,0.3 -0.3,0.3 z"
             inkscape:connector-curvature="0"
             style="fill:#8c8c8c" />
        </g>
      </g>
      <g
         id="g29">
        <path
           id="path31"
           d="m 437.9,340.2 h -0.7 c -0.1,0 -0.3,-0.1 -0.3,-0.3 v -1.3 c 0,-0.1 0.1,-0.3 0.3,-0.3 h 0.7 c 0.1,0 0.3,0.1 0.3,0.3 v 1.3 c -0.1,0.2 -0.2,0.3 -0.3,0.3 z"
           inkscape:connector-curvature="0"
           style="fill:#999999" />
        <path
           id="path33"
           d="m 446.1,340.2 c -0.6,0.1 -1.2,0.2 -2.4,0.2 -1.8,0 -3.8,-0.9 -3.8,-4.4 v -2 c 0,-3.5 2,-4.4 3.8,-4.4 0.9,0 1.8,0.1 2.4,0.2 0.1,0 0.2,0.1 0.2,0.2 v 0.7 c 0,0.1 0,0.2 -0.2,0.2 0,0 0,0 0,0 -0.5,0 -1.6,-0.1 -2.4,-0.1 -1.4,0 -2.5,0.8 -2.5,3.2 v 2 c 0,2.4 1.1,3.2 2.5,3.2 0.8,0 1.8,-0.1 2.4,-0.1 0,0 0,0 0.1,0 0.2,0 0.2,0.1 0.2,0.2 v 0.6 c 0,0.1 -0.2,0.2 -0.3,0.3 z"
           inkscape:connector-curvature="0"
           style="fill:#999999" />
        <path
           id="path35"
           d="m 451.2,340.3 c -2.2,0 -3.9,-1.3 -3.9,-4.5 V 334 c 0,-3.2 1.6,-4.5 3.9,-4.5 2.2,0 3.9,1.3 3.9,4.5 v 1.8 c -0.1,3.2 -1.7,4.5 -3.9,4.5 z m 2.5,-6.3 c 0,-2.4 -1,-3.3 -2.5,-3.3 -1.6,0 -2.6,0.9 -2.6,3.3 v 1.8 c 0,2.4 1,3.3 2.6,3.3 1.6,0 2.5,-0.9 2.5,-3.3 z"
           inkscape:connector-curvature="0"
           style="fill:#999999" />
        <path
           id="path37"
           d="m 465.4,340.2 h -0.7 c -0.2,0 -0.3,-0.1 -0.3,-0.3 v -8.5 c 0,0 0,0 0,0 0,0 0,0 0,0 l -2,4.2 c -0.1,0.3 -0.3,0.4 -0.6,0.4 H 461 c -0.4,0 -0.5,-0.1 -0.6,-0.4 l -2,-4.2 c 0,0 0,0 0,0 0,0 0,0 0,0 v 8.5 c 0,0.2 -0.1,0.3 -0.3,0.3 h -0.7 c -0.2,0 -0.3,-0.1 -0.3,-0.3 V 330 c 0,-0.2 0.2,-0.4 0.4,-0.4 h 0.9 c 0.3,0 0.4,0.1 0.5,0.2 l 2.4,4.9 c 0.1,0.1 0.1,0.2 0.2,0.2 0.1,0 0.1,0 0.2,-0.2 l 2.4,-4.9 c 0.1,-0.2 0.2,-0.2 0.5,-0.2 h 0.9 c 0.2,0 0.4,0.2 0.4,0.4 v 9.9 c -0.2,0.2 -0.3,0.3 -0.5,0.3 z"
           inkscape:connector-curvature="0"
           style="fill:#999999" />
      </g>
      <g
         id="g39">
        <g
           id="g41">
          <path
             id="path43"
             d="m 413,349.4 c -0.2,0 -0.7,0.1 -1.5,0.1 -1.1,0 -2.2,-0.6 -2.2,-2.8 v -1.2 c 0,-2.1 1.1,-2.8 2.2,-2.8 0.8,0 1.3,0.1 1.5,0.1 0.1,0 0.2,0.1 0.2,0.2 v 0.1 c 0,0.1 -0.1,0.1 -0.2,0.1 -0.3,0 -1,-0.1 -1.5,-0.1 -1,0 -1.8,0.6 -1.8,2.4 v 1.2 c 0,1.8 0.8,2.4 1.8,2.4 0.6,0 1.2,0 1.5,-0.1 0.1,0 0.2,0 0.2,0.1 v 0.1 c -0.1,0.1 -0.2,0.2 -0.2,0.2 z"
             inkscape:connector-curvature="0"
             style="fill:#999999" />
          <path
             id="path45"
             d="m 417.1,349.4 v 0 c -0.1,0 -0.2,-0.1 -0.2,-0.2 V 349 c -0.4,0.2 -1,0.5 -1.5,0.5 -0.7,0 -1.4,-0.3 -1.4,-1.4 V 348 c 0,-0.9 0.6,-1.4 2.2,-1.4 h 0.7 v -0.3 c 0,-0.9 -0.3,-1.3 -1.1,-1.3 -0.6,0 -0.8,0 -1.3,0.1 -0.1,0 -0.2,0 -0.2,-0.1 v -0.1 c 0,-0.1 0.1,-0.1 0.2,-0.2 0.4,0 0.7,-0.1 1.3,-0.1 1.2,0 1.5,0.7 1.5,1.6 v 3 c -0.1,0.1 -0.1,0.2 -0.2,0.2 z m -0.3,-2.5 h -0.7 c -1.3,0 -1.8,0.3 -1.8,1 v 0.1 c 0,0.8 0.4,1.1 1,1.1 0.5,0 0.9,-0.1 1.5,-0.5 z"
             inkscape:connector-curvature="0"
             style="fill:#999999" />
          <path
             id="path47"
             d="m 418.8,349.5 v 0 c -0.2,0 -0.2,-0.1 -0.2,-0.2 v -6.4 c 0,-0.1 0.1,-0.2 0.2,-0.2 h 0.1 c 0.1,0 0.2,0.1 0.2,0.2 v 6.4 c -0.1,0.1 -0.2,0.2 -0.3,0.2 z"
             inkscape:connector-curvature="0"
             style="fill:#999999" />
          <path
             id="path49"
             d="m 423,349.4 c -0.4,0 -0.8,0.1 -1.1,0.1 -1.3,0 -1.8,-1 -1.8,-2.2 v -0.6 c 0,-1.2 0.5,-2.1 1.8,-2.1 0.3,0 0.7,0 1.1,0.1 0.1,0 0.2,0.1 0.2,0.2 v 0.1 c 0,0.1 -0.1,0.1 -0.2,0.1 -0.4,-0.1 -0.8,-0.1 -1.1,-0.1 -1,0 -1.4,0.7 -1.4,1.8 v 0.6 c 0,1.1 0.4,1.8 1.4,1.8 0.3,0 0.6,0 1.1,-0.1 0.1,0 0.2,0 0.2,0.1 v 0.1 c 0,0 0,0.1 -0.2,0.1 z"
             inkscape:connector-curvature="0"
             style="fill:#999999" />
          <path
             id="path51"
             d="m 430.8,349 c -0.1,0.3 -0.2,0.5 -0.5,0.5 -0.3,0 -0.4,-0.2 -0.5,-0.5 l -0.9,-3.4 c 0,-0.1 0,-0.1 -0.1,-0.1 0,0 0,0 -0.1,0.1 l -0.9,3.4 c -0.1,0.3 -0.2,0.5 -0.5,0.5 -0.3,0 -0.4,-0.1 -0.5,-0.5 l -1,-4.2 c 0,-0.1 0,-0.2 0.2,-0.2 h 0.1 c 0.1,0 0.1,0.1 0.1,0.1 l 1,4.2 c 0.1,0.2 0.1,0.2 0.1,0.2 0,0 0.1,0 0.1,-0.2 l 1,-3.5 c 0.1,-0.2 0.2,-0.3 0.4,-0.3 0.2,0 0.3,0.1 0.4,0.3 l 1,3.5 c 0.1,0.2 0.1,0.2 0.1,0.2 0,0 0.1,0 0.1,-0.2 l 1,-4.2 c 0,-0.1 0,-0.1 0.1,-0.1 h 0.1 c 0.2,0 0.2,0.1 0.2,0.2 z"
             inkscape:connector-curvature="0"
             style="fill:#999999" />
          <path
             id="path53"
             d="m 433.2,343.7 v 0 c -0.1,0 -0.2,-0.1 -0.2,-0.2 v -0.7 c 0,-0.1 0.1,-0.2 0.2,-0.2 h 0.1 c 0.1,0 0.2,0.1 0.2,0.2 v 0.7 c -0.1,0.1 -0.2,0.2 -0.3,0.2 z m 0,5.8 v 0 c -0.1,0 -0.2,-0.1 -0.2,-0.2 v -4.5 c 0,-0.1 0.1,-0.2 0.2,-0.2 h 0.1 c 0.1,0 0.2,0.1 0.2,0.2 v 4.5 c -0.1,0.1 -0.2,0.2 -0.3,0.2 z"
             inkscape:connector-curvature="0"
             style="fill:#999999" />
          <path
             id="path55"
             d="m 437,349.4 c -0.1,0 -0.3,0 -0.5,0 -0.6,0 -1,-0.2 -1,-1 V 345 h -0.9 c -0.1,0 -0.2,-0.1 -0.2,-0.1 v -0.1 c 0,-0.1 0.1,-0.1 0.2,-0.1 h 0.9 v -0.9 c 0,-0.1 0.1,-0.2 0.2,-0.2 h 0.1 c 0.1,0 0.1,0.1 0.1,0.2 v 0.9 h 1.1 c 0.1,0 0.2,0 0.2,0.1 v 0.1 c 0,0.1 -0.1,0.1 -0.2,0.1 h -1.1 v 3.5 c 0,0.5 0.2,0.6 0.6,0.6 h 0.4 c 0.1,0 0.2,0 0.2,0.1 v 0.1 c 0,0.1 0,0.1 -0.1,0.1 z"
             inkscape:connector-curvature="0"
             style="fill:#999999" />
          <path
             id="path57"
             d="m 441.3,349.5 v 0 c -0.2,0 -0.2,-0.1 -0.2,-0.2 v -3 c 0,-0.9 -0.4,-1.4 -1.3,-1.4 -0.4,0 -0.9,0.1 -1.2,0.2 v 4.2 c 0,0.1 -0.1,0.2 -0.2,0.2 h -0.1 c -0.1,0 -0.2,-0.1 -0.2,-0.2 v -6.4 c 0,-0.1 0.1,-0.2 0.2,-0.2 h 0.1 c 0.1,0 0.2,0.1 0.2,0.2 v 1.8 c 0.3,-0.1 0.8,-0.2 1.2,-0.2 1.2,0 1.7,0.7 1.7,1.7 v 3 c -0.1,0.2 -0.1,0.3 -0.2,0.3 z"
             inkscape:connector-curvature="0"
             style="fill:#999999" />
          <path
             id="path59"
             d="m 449.5,349 c -0.1,0.3 -0.2,0.4 -0.4,0.4 -0.3,0 -0.4,-0.2 -0.4,-0.4 l -1.1,-3.5 c 0,-0.1 0,-0.1 -0.1,-0.1 0,0 0,0 -0.1,0.1 l -1.1,3.5 c -0.1,0.2 -0.2,0.4 -0.4,0.4 -0.2,0 -0.4,-0.1 -0.4,-0.4 l -1.1,-6.1 c 0,-0.1 0,-0.2 0.1,-0.2 h 0.1 c 0.1,0 0.1,0 0.2,0.1 l 1.1,6.1 c 0,0.1 0,0.1 0.1,0.1 0,0 0,0 0.1,-0.1 l 1.1,-3.5 c 0.1,-0.3 0.2,-0.3 0.4,-0.3 0.2,0 0.3,0.1 0.4,0.3 l 1.1,3.5 c 0,0.1 0,0.1 0.1,0.1 0,0 0,0 0.1,-0.1 l 1.1,-6.1 c 0,-0.1 0.1,-0.1 0.2,-0.1 h 0.1 c 0.1,0 0.2,0.1 0.1,0.2 z"
             inkscape:connector-curvature="0"
             style="fill:#999999" />
          <path
             id="path61"
             d="m 453,349.5 c -1.2,0 -1.8,-0.8 -1.8,-2.1 v -0.6 c 0,-1.4 0.6,-2.1 1.8,-2.1 1.2,0 1.8,0.8 1.8,2.1 v 0.6 c 0,1.3 -0.6,2.1 -1.8,2.1 z m 1.4,-2.8 c 0,-1.1 -0.4,-1.8 -1.4,-1.8 -1,0 -1.4,0.7 -1.4,1.8 v 0.6 c 0,1.1 0.4,1.8 1.4,1.8 1,0 1.4,-0.7 1.4,-1.8 z"
             inkscape:connector-curvature="0"
             style="fill:#999999" />
          <path
             id="path63"
             d="m 457.6,344.9 c -0.3,0 -0.7,0.1 -1.2,0.4 v 3.9 c 0,0.1 -0.1,0.2 -0.2,0.2 h -0.1 c -0.1,0 -0.2,-0.1 -0.2,-0.2 v -4.5 c 0,-0.1 0.1,-0.2 0.2,-0.2 h 0.1 c 0.1,0 0.2,0.1 0.2,0.2 v 0.2 c 0.5,-0.3 0.8,-0.4 1.2,-0.4 0.1,0 0.2,0 0.2,0.1 v 0.1 c 0,0.2 -0.1,0.2 -0.2,0.2 z"
             inkscape:connector-curvature="0"
             style="fill:#999999" />
          <path
             id="path65"
             d="m 461.5,349.3 c -0.4,0.1 -1,0.2 -1.5,0.2 -1.2,0 -1.8,-0.9 -1.8,-2.2 v -0.6 c 0,-1.4 0.6,-2.1 1.8,-2.1 0.3,0 0.9,0.1 1.2,0.1 v -1.8 c 0,-0.1 0.1,-0.2 0.2,-0.2 h 0.1 c 0.1,0 0.2,0.1 0.2,0.2 v 6.2 c -0.1,0.1 -0.1,0.2 -0.2,0.2 z m -0.3,-4.3 c -0.3,-0.1 -0.9,-0.1 -1.2,-0.1 -1,0 -1.4,0.6 -1.4,1.8 v 0.6 c 0,1.2 0.4,1.8 1.4,1.8 0.4,0 0.9,-0.1 1.2,-0.1 z"
             inkscape:connector-curvature="0"
             style="fill:#999999" />
          <path
             id="path67"
             d="m 464.2,349.5 c -0.4,0 -1,-0.1 -1.3,-0.1 -0.1,0 -0.2,0 -0.2,-0.1 v -0.1 c 0,-0.1 0.1,-0.1 0.2,-0.1 0.4,0.1 0.9,0.1 1.3,0.1 0.6,0 1.1,-0.2 1.1,-0.9 0,-0.4 -0.2,-0.6 -0.9,-1 l -0.6,-0.3 c -0.7,-0.4 -1.1,-0.7 -1.1,-1.3 0,-0.8 0.7,-1.1 1.4,-1.1 0.6,0 1,0 1.3,0.1 0.1,0 0.2,0 0.2,0.2 v 0.1 c 0,0.1 -0.1,0.2 -0.2,0.1 -0.2,0 -0.8,-0.1 -1.2,-0.1 -0.6,0 -1,0.1 -1,0.8 0,0.4 0.3,0.6 0.9,0.9 l 0.6,0.3 c 0.7,0.4 1.1,0.7 1.1,1.3 -0.1,0.9 -0.8,1.2 -1.6,1.2 z"
             inkscape:connector-curvature="0"
             style="fill:#999999" />
        </g>
      </g>
    </g>
  </g>
</svg>
