<?xml version="1.0" encoding="UTF-8" standalone="no"?>
<!-- Generator: Adobe Illustrator 16.0.0, SVG Export Plug-In . SVG Version: 6.00 Build 0)  -->

<svg
   xmlns:dc="http://purl.org/dc/elements/1.1/"
   xmlns:cc="http://creativecommons.org/ns#"
   xmlns:rdf="http://www.w3.org/1999/02/22-rdf-syntax-ns#"
   xmlns:svg="http://www.w3.org/2000/svg"
   xmlns="http://www.w3.org/2000/svg"
   xmlns:xlink="http://www.w3.org/1999/xlink"
   xmlns:sodipodi="http://sodipodi.sourceforge.net/DTD/sodipodi-0.dtd"
   xmlns:inkscape="http://www.inkscape.org/namespaces/inkscape"
   version="1.1"
   id="Capa_1"
   x="0px"
   y="0px"
   width="20px"
   height="20px"
   viewBox="0 0 20 20"
   enable-background="new 0 0 20 20"
   xml:space="preserve"
   sodipodi:docname="button_del.svg"
   inkscape:version="0.92.1 r15371"><metadata
     id="metadata35"><rdf:RDF><cc:Work
         rdf:about=""><dc:format>image/svg+xml</dc:format><dc:type
           rdf:resource="http://purl.org/dc/dcmitype/StillImage" /><dc:title></dc:title></cc:Work></rdf:RDF></metadata><defs
     id="defs33"><linearGradient
       inkscape:collect="always"
       id="linearGradient4538"><stop
         style="stop-color:#c11717;stop-opacity:1"
         offset="0"
         id="stop4534" /><stop
         style="stop-color:#c11717;stop-opacity:0.50588238"
         offset="1"
         id="stop4536" /></linearGradient><linearGradient
       gradientTransform="rotate(90,315,112.7705)"
       y2="417.77051"
       x2="222.9575"
       y1="417.77051"
       x1="202.9575"
       gradientUnits="userSpaceOnUse"
       id="SVGID_1_"
       xlink:href="#SVGID_2_"><stop
         id="stop2"
         style="stop-color:#5B5B5F"
         offset="0" /><stop
         id="stop4"
         style="stop-color:#141414"
         offset="1" /></linearGradient><linearGradient
       y2="20"
       x2="10"
       y1="0"
       x1="10"
       gradientUnits="userSpaceOnUse"
       id="SVGID_2_"><stop
         id="stop9"
         style="stop-color:#5B5B5F"
         offset="0" /><stop
         id="stop11"
         style="stop-color:#464649"
         offset="0.2775" /><stop
         id="stop13"
         style="stop-color:#0F0F10"
         offset="0.8541" /><stop
         id="stop15"
         style="stop-color:#000000"
         offset="1" /></linearGradient><filter
       inkscape:collect="always"
       style="color-interpolation-filters:sRGB"
       id="filter4578"
       x="-0.12"
       width="1.24"
       y="-0.12"
       height="1.24"><feGaussianBlur
         inkscape:collect="always"
         stdDeviation="1"
         id="feGaussianBlur4580" /></filter><linearGradient
       inkscape:collect="always"
       xlink:href="#linearGradient4538"
       id="linearGradient4609"
       gradientUnits="userSpaceOnUse"
       x1="13.983051"
       y1="14.830508"
       x2="5.0847459"
       y2="-7.758706e-07" /></defs><sodipodi:namedview
     pagecolor="#ffffff"
     bordercolor="#666666"
     borderopacity="1"
     objecttolerance="10"
     gridtolerance="10"
     guidetolerance="10"
     inkscape:pageopacity="0"
     inkscape:pageshadow="2"
     inkscape:window-width="1132"
     inkscape:window-height="853"
     id="namedview31"
     showgrid="false"
     inkscape:zoom="8.2"
     inkscape:cx="11.646341"
     inkscape:cy="13.658537"
     inkscape:window-x="181"
     inkscape:window-y="76"
     inkscape:window-maximized="0"
     inkscape:current-layer="Capa_1" /><circle
     style="fill:url(#linearGradient4609);fill-opacity:1;filter:url(#filter4578);fill-rule:evenodd"
     id="circle7"
     r="10"
     cy="10"
     cx="10" /><path
     inkscape:connector-curvature="0"
     style="fill:url(#SVGID_2_)"
     id="path18"
     d="m 10,1.666 c 4.596,0 8.335,3.739 8.335,8.334 0,4.595 -3.739,8.334 -8.335,8.334 C 5.404,18.334 1.665,14.595 1.665,10 1.665,5.405 5.404,1.666 10,1.666 M 10,0 C 4.477,0 0,4.477 0,10 0,15.522 4.477,20 10,20 15.523,20 20,15.522 20,10 20,4.478 15.523,0 10,0 Z" /><g
     id="g28"><g
       id="g26" /></g><g
     transform="matrix(0.01626571,0,0,0.01626571,3.3392588,3.4641016)"
     id="g7"
     style="fill:#ffffff;fill-opacity:1"><g
       id="_x34_3"
       style="fill:#ffffff;fill-opacity:1"><g
         id="g4"
         style="fill:#ffffff;fill-opacity:1"><path
           inkscape:connector-curvature="0"
           d="M 585.817,235.853 H 209.213 c -39.622,0 -71.729,32.107 -71.729,71.729 l 38.841,412.664 c 0,39.622 32.107,71.778 71.729,71.778 h 304.924 c 39.622,0 71.729,-32.156 71.729,-71.778 l 32.888,-412.664 c 10e-4,-39.622 -32.156,-71.729 -71.778,-71.729 z M 301.876,666.375 c 0,19.762 -16.054,35.913 -35.865,35.913 -19.811,0 -35.865,-16.151 -35.865,-35.913 V 343.349 c 0,-19.762 16.054,-35.816 35.865,-35.816 19.811,0 35.865,16.005 35.865,35.816 z m 125.551,0 c 0,19.762 -16.053,35.913 -35.865,35.913 -19.811,0 -35.865,-16.151 -35.865,-35.913 V 343.349 c 0,-19.762 16.054,-35.816 35.865,-35.816 19.812,0 35.865,16.005 35.865,35.816 z m 125.552,0 c 0,19.762 -16.054,35.913 -35.865,35.913 -19.811,0 -35.864,-16.151 -35.864,-35.913 V 343.349 c 0,-19.762 16.054,-35.816 35.864,-35.816 19.812,0 35.865,16.005 35.865,35.816 z M 190.037,199.939 624.317,88.246 C 648.324,82.098 662.767,57.602 656.571,33.644 650.374,9.637 625.976,-4.758 601.968,1.439 L 468.172,35.84 C 455.826,17.493 433.282,7.734 410.642,13.54 l -52.114,13.468 c -22.641,5.807 -37.67,25.227 -39.67,47.234 l -151.168,38.89 c -23.959,6.1 -38.402,30.595 -32.254,54.553 6.195,23.959 30.642,38.402 54.601,32.254 z"
           id="path2"
           style="fill:#ffffff;fill-opacity:1" /></g></g></g></svg>